<svg xmlns="http://www.w3.org/2000/svg" width="1536" height="1024" viewBox="0 0 1536 1024"><rect x="0" y="0" width="1536" height="1024" rx="0" fill="#E8EADF"/><text x="64" y="58" font-family="Segoe UI,Arial,sans-serif" font-size="15" font-weight="600" letter-spacing="1.8" text-anchor="start" fill="#686860">YMPLAYER  /  ЦВЕТ И ЗНАК</text><text x="64" y="126" font-family="Segoe UI,Arial,sans-serif" font-size="44" font-weight="650" letter-spacing="0" text-anchor="start" fill="#292A27">02  Лесная бумага</text><text x="66" y="162" font-family="Segoe UI,Arial,sans-serif" font-size="23" font-weight="500" letter-spacing="0" text-anchor="start" fill="#686860">Лигатура</text><g transform="translate(78 218) scale(2.8)"><path d="M9 21L30 49L51 21V80M30 49V80M51 21L70 49L89 21V80" fill="none" stroke="#1C2420" stroke-width="13" stroke-linecap="round" stroke-linejoin="round"/></g><path d="M410 235L410 487" fill="none" stroke="#C9C5BB" stroke-width="1" stroke-linecap="round"/><text x="451" y="248" font-family="Segoe UI,Arial,sans-serif" font-size="13" font-weight="600" letter-spacing="1" text-anchor="start" fill="#686860">ИКОНКА ПРИЛОЖЕНИЯ</text><rect x="451" y="270" width="142" height="142" rx="30" fill="#1C2420"/><g transform="translate(472 291) scale(1.0)"><path d="M9 21L30 49L51 21V80M30 49V80M51 21L70 49L89 21V80" fill="none" stroke="#B6C489" stroke-width="13" stroke-linecap="round" stroke-linejoin="round"/></g><rect x="624" y="270" width="142" height="142" rx="30" fill="#F9F7F0"/><g transform="translate(645 291) scale(1.0)"><path d="M9 21L30 49L51 21V80M30 49V80M51 21L70 49L89 21V80" fill="none" stroke="#1C2420" stroke-width="13" stroke-linecap="round" stroke-linejoin="round"/></g><text x="451" y="457" font-family="Segoe UI,Arial,sans-serif" font-size="16" font-weight="400" letter-spacing="0" text-anchor="start" fill="#686860">Один цвет · узнаваемый силуэт</text><text x="65" y="556" font-family="Segoe UI,Arial,sans-serif" font-size="19" font-weight="400" letter-spacing="0" text-anchor="start" fill="#292A27">Буквы связаны общим штрихом; мягкость без пузырчатых форм.</text><text x="65" y="599" font-family="Segoe UI,Arial,sans-serif" font-size="13" font-weight="600" letter-spacing="1.3" text-anchor="start" fill="#686860">ПАЛИТРА И РОЛИ</text><rect x="65" y="619" width="148" height="61" rx="5" fill="#1C2420" stroke="#BEBBB0"/><text x="65" y="705" font-family="Segoe UI,Arial,sans-serif" font-size="15" font-weight="400" letter-spacing="0" text-anchor="start" fill="#686860">Фон</text><text x="65" y="731" font-family="Segoe UI,Arial,sans-serif" font-size="17" font-weight="600" letter-spacing="0" text-anchor="start" fill="#292A27">#1C2420</text><rect x="229" y="619" width="148" height="61" rx="5" fill="#29332C" stroke="#BEBBB0"/><text x="229" y="705" font-family="Segoe UI,Arial,sans-serif" font-size="15" font-weight="400" letter-spacing="0" text-anchor="start" fill="#686860">Карточка</text><text x="229" y="731" font-family="Segoe UI,Arial,sans-serif" font-size="17" font-weight="600" letter-spacing="0" text-anchor="start" fill="#292A27">#29332C</text><rect x="393" y="619" width="148" height="61" rx="5" fill="#F1EADC" stroke="#BEBBB0"/><text x="393" y="705" font-family="Segoe UI,Arial,sans-serif" font-size="15" font-weight="400" letter-spacing="0" text-anchor="start" fill="#686860">Текст</text><text x="393" y="731" font-family="Segoe UI,Arial,sans-serif" font-size="17" font-weight="600" letter-spacing="0" text-anchor="start" fill="#292A27">#F1EADC</text><rect x="557" y="619" width="148" height="61" rx="5" fill="#B6C489" stroke="#BEBBB0"/><text x="557" y="705" font-family="Segoe UI,Arial,sans-serif" font-size="15" font-weight="400" letter-spacing="0" text-anchor="start" fill="#686860">Акцент</text><text x="557" y="731" font-family="Segoe UI,Arial,sans-serif" font-size="17" font-weight="600" letter-spacing="0" text-anchor="start" fill="#292A27">#B6C489</text><rect x="721" y="619" width="148" height="61" rx="5" fill="#C99673" stroke="#BEBBB0"/><text x="721" y="705" font-family="Segoe UI,Arial,sans-serif" font-size="15" font-weight="400" letter-spacing="0" text-anchor="start" fill="#686860">Второй</text><text x="721" y="731" font-family="Segoe UI,Arial,sans-serif" font-size="17" font-weight="600" letter-spacing="0" text-anchor="start" fill="#292A27">#C99673</text><text x="65" y="790" font-family="Segoe UI,Arial,sans-serif" font-size="13" font-weight="600" letter-spacing="1" text-anchor="start" fill="#686860">МАЛЕНЬКИЙ РАЗМЕР</text><g transform="translate(65 809) scale(0.64)"><path d="M9 21L30 49L51 21V80M30 49V80M51 21L70 49L89 21V80" fill="none" stroke="#1C2420" stroke-width="13" stroke-linecap="round" stroke-linejoin="round"/></g><g transform="translate(160 834) scale(0.32)"><path d="M9 21L30 49L51 21V80M30 49V80M51 21L70 49L89 21V80" fill="none" stroke="#1C2420" stroke-width="13" stroke-linecap="round" stroke-linejoin="round"/></g><g transform="translate(224 842) scale(0.24)"><path d="M9 21L30 49L51 21V80M30 49V80M51 21L70 49L89 21V80" fill="none" stroke="#1C2420" stroke-width="13" stroke-linecap="round" stroke-linejoin="round"/></g><text x="279" y="860" font-family="Segoe UI,Arial,sans-serif" font-size="16" font-weight="400" letter-spacing="0" text-anchor="start" fill="#686860">64 / 32 / 24 px</text><rect x="65" y="907" width="160" height="42" rx="9" fill="#1C2420"/><text x="145" y="935" font-family="Segoe UI,Arial,sans-serif" font-size="15" font-weight="600" letter-spacing="0" text-anchor="middle" fill="#B6C489">Воспроизвести</text><rect x="245" y="907" width="150" height="42" rx="9" fill="#B6C489"/><text x="320" y="935" font-family="Segoe UI,Arial,sans-serif" font-size="15" font-weight="600" letter-spacing="0" text-anchor="middle" fill="#1C2420">Моя волна</text><text x="65" y="984" font-family="Segoe UI,Arial,sans-serif" font-size="12" font-weight="500" letter-spacing="1" text-anchor="start" fill="#686860">ЭСКИЗ ДЛЯ ВЫБОРА  •  01.10.2026</text><g transform="translate(1048 94)"><rect x="0" y="0" width="424" height="852" rx="24" fill="#1C2420"/><text x="25" y="40" font-family="Segoe UI,Arial,sans-serif" font-size="15" font-weight="600" letter-spacing="0" text-anchor="start" fill="#F1EADC">9:41</text><text x="395" y="40" font-family="Segoe UI,Arial,sans-serif" font-size="13" font-weight="400" letter-spacing="0" text-anchor="end" fill="#ADB8A6">•••  85%</text><g transform="translate(24 63) scale(0.31)"><path d="M9 21L30 49L51 21V80M30 49V80M51 21L70 49L89 21V80" fill="none" stroke="#B6C489" stroke-width="13" stroke-linecap="round" stroke-linejoin="round"/></g><text x="68" y="87" font-family="Segoe UI,Arial,sans-serif" font-size="23" font-weight="600" letter-spacing="0" text-anchor="start" fill="#F1EADC">YMPlayer 2</text><g transform="translate(332 65) scale(0.8571428571428571)"><circle cx="14" cy="8" r="4" fill="none" stroke="#F1EADC" stroke-width="2"/><path d="M6 25V22Q6 15 14 15Q22 15 22 22V25" fill="none" stroke="#F1EADC" stroke-width="2" stroke-linecap="butt" stroke-linejoin="miter"/></g><g transform="translate(374 65) scale(0.8571428571428571)"><circle cx="14" cy="14" r="9" fill="none" stroke="#F1EADC" stroke-width="2"/><circle cx="14" cy="14" r="3" fill="none" stroke="#F1EADC" stroke-width="2"/><path d="M14 1V5M14 23V27M1 14H5M23 14H27" fill="none" stroke="#F1EADC" stroke-width="2" stroke-linecap="butt" stroke-linejoin="miter"/></g><text x="24" y="134" font-family="Segoe UI,Arial,sans-serif" font-size="27" font-weight="650" letter-spacing="0" text-anchor="start" fill="#F1EADC">Сейчас играет</text><rect x="98" y="155" width="228" height="228" rx="14" fill="#282929"/><text x="116" y="180" font-family="Segoe UI,Arial,sans-serif" font-size="9" font-weight="500" letter-spacing="1" text-anchor="start" fill="#BDB7AB">N A U T I L U S</text><circle cx="212" cy="262" r="83" fill="#141515"/><circle cx="212" cy="262" r="65" fill="none" stroke="#3F413F" stroke-width="1"/><circle cx="212" cy="262" r="58" fill="none" stroke="#3F413F" stroke-width="1"/><circle cx="212" cy="262" r="51" fill="none" stroke="#3F413F" stroke-width="1"/><circle cx="212" cy="262" r="29" fill="#BFB8A9"/><circle cx="212" cy="262" r="5" fill="#282929"/><path d="M146 317Q190 261 230 203L261 191L232 240L207 306Z" fill="#888D85"/><text x="116" y="365" font-family="Segoe UI,Arial,sans-serif" font-size="9" font-weight="500" letter-spacing="1" text-anchor="start" fill="#CFC8BA">СЕРЕБРЯНЫЙ ВЕК</text><text x="24" y="420" font-family="Segoe UI,Arial,sans-serif" font-size="31" font-weight="650" letter-spacing="0" text-anchor="start" fill="#F1EADC">Титаник</text><text x="24" y="451" font-family="Segoe UI,Arial,sans-serif" font-size="20" font-weight="500" letter-spacing="0" text-anchor="start" fill="#B6C489">Наутилус Помпилиус</text><text x="24" y="479" font-family="Segoe UI,Arial,sans-serif" font-size="13" font-weight="400" letter-spacing="0" text-anchor="start" fill="#ADB8A6">Яндекс · Онлайн</text><g transform="translate(343 409) scale(0.8571428571428571)"><path d="M14 24L4 14C-2 5 8 0 14 8C20 0 30 5 24 14Z" fill="none" stroke="#B6C489" stroke-width="2" stroke-linecap="round" stroke-linejoin="round"/></g><g transform="translate(383 409) scale(0.8571428571428571)"><circle cx="14" cy="5" r="2" fill="#ADB8A6"/><circle cx="14" cy="14" r="2" fill="#ADB8A6"/><circle cx="14" cy="23" r="2" fill="#ADB8A6"/></g><rect x="24" y="508" width="376" height="4" rx="2" fill="#364339"/><rect x="24" y="508" width="148" height="4" rx="2" fill="#B6C489"/><circle cx="172" cy="510" r="6" fill="#B6C489"/><text x="24" y="541" font-family="Segoe UI,Arial,sans-serif" font-size="14" font-weight="400" letter-spacing="0" text-anchor="start" fill="#ADB8A6">1:58</text><text x="400" y="541" font-family="Segoe UI,Arial,sans-serif" font-size="14" font-weight="400" letter-spacing="0" text-anchor="end" fill="#ADB8A6">5:03</text><g transform="translate(54 597) scale(1.0714285714285714)"><path d="M5 5H8V23H5ZM22 5L9 14L22 23Z" fill="#F1EADC"/></g><circle cx="151" cy="611" r="40" fill="#B6C489"/><g transform="translate(131 591) scale(1.4285714285714286)"><path d="M8 4L23 14L8 24Z" fill="#1C2420"/></g><g transform="translate(227 597) scale(1.0714285714285714)"><path d="M21 5H24V23H21ZM7 5L20 14L7 23Z" fill="#F1EADC"/></g><g transform="translate(324 597) scale(1.0714285714285714)"><rect x="6" y="6" width="16" height="16" rx="1" fill="#F1EADC"/></g><g transform="translate(30 672) scale(0.8928571428571429)"><path d="M4 11V6H24L20 2M24 6L20 10M24 18V23H4L8 27M4 23L8 19" fill="none" stroke="#ADB8A6" stroke-width="2" stroke-linecap="round" stroke-linejoin="round"/></g><g transform="translate(95 672) scale(0.8928571428571429)"><path d="M3 5H7L21 23H26M22 19L26 23L22 27M3 23H7L12 17M17 10L21 5H26M22 1L26 5L22 9" fill="none" stroke="#ADB8A6" stroke-width="2" stroke-linecap="round" stroke-linejoin="round"/></g><g transform="translate(284 672) scale(0.8928571428571429)"><path d="M5 2V27M14 2V27M23 2V27M1 8H9M10 21H18M19 12H27" fill="none" stroke="#ADB8A6" stroke-width="2" stroke-linecap="round" stroke-linejoin="miter"/></g><g transform="translate(365 672) scale(0.8928571428571429)"><path d="M2 7H18M2 13H18M2 19H12M22 4V20M22 4H27" fill="none" stroke="#ADB8A6" stroke-width="2" stroke-linecap="round" stroke-linejoin="miter"/><circle cx="19" cy="21" r="3" fill="#ADB8A6"/></g><path d="M24 728L400 728" fill="none" stroke="#364339" stroke-width="1" stroke-linecap="round"/><rect x="34" y="742" width="49" height="38" rx="12" fill="#364339"/><g transform="translate(47 748) scale(0.8571428571428571)"><path d="M8 4L23 14L8 24Z" fill="#B6C489"/></g><text x="59" y="807" font-family="Segoe UI,Arial,sans-serif" font-size="12" font-weight="600" letter-spacing="0" text-anchor="middle" fill="#B6C489">Плеер</text><g transform="translate(148 748) scale(0.8571428571428571)"><rect x="3" y="4" width="19" height="19" rx="2" fill="none" stroke="#ADB8A6"/><path d="M13 8V18M13 8H19" fill="none" stroke="#ADB8A6" stroke-width="2" stroke-linecap="butt" stroke-linejoin="miter"/><circle cx="10" cy="18" r="3" fill="#ADB8A6"/></g><text x="160" y="807" font-family="Segoe UI,Arial,sans-serif" font-size="12" font-weight="400" letter-spacing="0" text-anchor="middle" fill="#ADB8A6">Медиатека</text><g transform="translate(249 748) scale(0.8571428571428571)"><circle cx="11" cy="11" r="8" fill="none" stroke="#ADB8A6" stroke-width="2.3"/><path d="M17 17L25 25" fill="none" stroke="#ADB8A6" stroke-width="2.3" stroke-linecap="round"/></g><text x="261" y="807" font-family="Segoe UI,Arial,sans-serif" font-size="12" font-weight="400" letter-spacing="0" text-anchor="middle" fill="#ADB8A6">Поиск</text><g transform="translate(350 748) scale(0.8571428571428571)"><rect x="2" y="5" width="25" height="18" rx="3" fill="none" stroke="#ADB8A6"/><path d="M11 9L19 14L11 19Z" fill="#ADB8A6"/></g><text x="362" y="807" font-family="Segoe UI,Arial,sans-serif" font-size="12" font-weight="400" letter-spacing="0" text-anchor="middle" fill="#ADB8A6">Клипы</text></g><text x="1048" y="975" font-family="Segoe UI,Arial,sans-serif" font-size="15" font-weight="400" letter-spacing="0" text-anchor="start" fill="#686860">Пример палитры на главном плеере</text></svg>