<svg xmlns="http://www.w3.org/2000/svg" width="40" height="40" viewBox="0 0 40 40"><!-- Material Icons, AndroidX Compose 1.7.8; Apache-2.0, The Android Open Source Project. --><rect width="40" height="40" rx="8" fill="#292622"/><g transform="translate(8 8)" fill="#f4eee5"><path d="M12.0  2.0 C6.48  2.0  2.0  6.48  2.0  12.0 s4.48  10.0  10.0  10.0 s10.0  -4.48  10.0  -10.0 S17.52  2.0  12.0  2.0 Z M12.0  6.0 c1.93  0.0  3.5  1.57  3.5  3.5 S13.93  13.0  12.0  13.0 s-3.5  -1.57  -3.5  -3.5 S10.07  6.0  12.0  6.0 Z M12.0  20.0 c-2.03  0.0  -4.43  -0.82  -6.14  -2.88 C7.55  15.8  9.68  15.0  12.0  15.0 s4.45  0.8  6.14  2.12 C16.43  19.18  14.03  20.0  12.0  20.0 Z"/></g></svg>
